<svg width="45" height="44" viewBox="0 0 45 44" fill="none" xmlns="http://www.w3.org/2000/svg">
<path d="M44.5 22C44.5 33.8636 34.6609 43.5 22.5 43.5C10.3391 43.5 0.5 33.8636 0.5 22C0.5 10.1364 10.3391 0.5 22.5 0.5C34.6609 0.5 44.5 10.1364 44.5 22Z" fill="#111827" stroke="white"/>
<path d="M14.1943 34.8975L10.7764 35C10.2751 35 9.8763 34.8804 9.58008 34.6411C9.29525 34.3905 9.15283 34.0601 9.15283 33.6499C9.15283 33.2397 9.32373 32.9036 9.66553 32.6416C10.0073 32.3796 10.4744 32.2485 11.0669 32.2485H12.7075V11.1084L11.2549 11.2451C11.1637 11.2451 11.0783 11.2451 10.9985 11.2451C10.3035 11.2451 9.76807 11.1141 9.39209 10.8521C9.02751 10.59 8.84521 10.2311 8.84521 9.77539C8.84521 8.87533 9.60286 8.42529 11.1182 8.42529C13.2829 8.42529 14.7697 8.61898 15.5786 9.00635C16.3875 9.38232 17.0256 9.87223 17.4927 10.4761C17.9712 11.0799 18.387 11.661 18.7402 12.2192L29.7974 29.873C29.7176 28.6768 29.6777 27.6912 29.6777 26.9165V11.1768H28.0713C27.4902 11.1768 27.0231 11.0514 26.6699 10.8008C26.3167 10.5501 26.1401 10.2197 26.1401 9.80957C26.1401 9.39941 26.2882 9.06901 26.5845 8.81836C26.8921 8.55632 27.2965 8.42529 27.7979 8.42529L31.2158 8.54492L34.3945 8.42529C35.3174 8.42529 35.887 8.70443 36.1035 9.2627C36.1719 9.4222 36.2061 9.5874 36.2061 9.7583C36.2061 10.7039 35.494 11.1768 34.0698 11.1768H32.8223V32.2314H33.7109C35.1921 32.2314 35.9326 32.71 35.9326 33.667C35.9326 34.5557 35.1921 35 33.7109 35H32.207C31.4323 35 30.7487 34.8234 30.1562 34.4702C29.5752 34.117 29.1195 33.6955 28.7891 33.2056L15.6982 12.7661C15.8008 13.8485 15.8521 15.0505 15.8521 16.3721V32.2485H17.0654C17.8516 32.2485 18.4041 32.391 18.7231 32.6758C19.0535 32.9492 19.2188 33.2284 19.2188 33.5132C19.2188 34.5044 18.6092 35 17.3901 35L14.1943 34.8975Z" fill="white"/>
</svg>
